<mxfile host="app.diagrams.net">
  <diagram name="AWS Architecture Diagram">
    <mxGraphModel dx="1080" dy="720" grid="1" gridSize="10" guides="1" tooltips="1" connect="1" arrows="1" fold="1" page="1" pageScale="1" pageWidth="827" pageHeight="1169" math="0" shadow="0">
      <root>
        <mxCell id="0" />
        <mxCell id="1" parent="0" />
        <mxCell id="2" value="VPC" style="rounded=1;whiteSpace=wrap;html=1;fillColor=#d9e8fb;strokeColor=#0368ce;strokeWidth=2;" vertex="1" parent="1">
          <mxGeometry x="40" y="40" width="800" height="600" as="geometry" />
        </mxCell>
        <mxCell id="3" value="Public Subnet (AZ1)" style="rounded=1;whiteSpace=wrap;html=1;fillColor=#ffffff;strokeColor=#0368ce;strokeWidth=2;" vertex="1" parent="2">
          <mxGeometry x="60" y="60" width="360" height="200" as="geometry" />
        </mxCell>
        <mxCell id="4" value="Public Subnet (AZ2)" style="rounded=1;whiteSpace=wrap;html=1;fillColor=#ffffff;strokeColor=#0368ce;strokeWidth=2;" vertex="1" parent="2">
          <mxGeometry x="420" y="60" width="360" height="200" as="geometry" />
        </mxCell>
        <mxCell id="5" value="Private Subnet (AZ1)" style="rounded=1;whiteSpace=wrap;html=1;fillColor=#ffffff;strokeColor=#0368ce;strokeWidth=2;" vertex="1" parent="2">
          <mxGeometry x="60" y="320" width="360" height="200" as="geometry" />
        </mxCell>
        <mxCell id="6" value="Private Subnet (AZ2)" style="rounded=1;whiteSpace=wrap;html=1;fillColor=#ffffff;strokeColor=#0368ce;strokeWidth=2;" vertex="1" parent="2">
          <mxGeometry x="420" y="320" width="360" height="200" as="geometry" />
        </mxCell>
        <mxCell id="7" value="Elastic Load Balancer" style="rounded=1;whiteSpace=wrap;html=1;fillColor=#ffe6cc;strokeColor=#ff9900;strokeWidth=2;" vertex="1" parent="3">
          <mxGeometry x="160" y="100" width="160" height="60" as="geometry" />
        </mxCell>
        <mxCell id="8" value="ECS Cluster (Fargate)" style="rounded=1;whiteSpace=wrap;html=1;fillColor=#ccffcc;strokeColor=#2eb82e;strokeWidth=2;" vertex="1" parent="5">
          <mxGeometry x="160" y="350" width="160" height="60" as="geometry" />
        </mxCell>
        <mxCell id="9" value="RDS MySQL (db.t4g.medium)" style="rounded=1;whiteSpace=wrap;html=1;fillColor=#e6f2ff;strokeColor=#3399ff;strokeWidth=2;" vertex="1" parent="6">
          <mxGeometry x="160" y="350" width="160" height="60" as="geometry" />
        </mxCell>
        <mxCell id="10" value="S3 Bucket" style="rounded=1;whiteSpace=wrap;html=1;fillColor=#e6f2ff;strokeColor=#3399ff;strokeWidth=2;" vertex="1" parent="1">
          <mxGeometry x="660" y="500" width="160" height="60" as="geometry" />
        </mxCell>
        <mxCell id="11" value="Route 53" style="rounded=1;whiteSpace=wrap;html=1;fillColor=#ffccff;strokeColor=#ff66cc;strokeWidth=2;" vertex="1" parent="1">
          <mxGeometry x="680" y="60" width="160" height="60" as="geometry" />
        </mxCell>
        <mxCell id="12" value="ACM Certificates" style="rounded=1;whiteSpace=wrap;html=1;fillColor=#ffccff;strokeColor=#ff66cc;strokeWidth=2;" vertex="1" parent="1">
          <mxGeometry x="660" y="440" width="160" height="60" as="geometry" />
        </mxCell>
        <mxCell id="13" edge="1" parent="1" source="7" target="8">
          <mxGeometry relative="1" as="geometry" />
        </mxCell>
        <mxCell id="14" edge="1" parent="1" source="8" target="9">
          <mxGeometry relative="1" as="geometry" />
        </mxCell>
        <mxCell id="15" edge="1" parent="1" source="11" target="7">
          <mxGeometry relative="1" as="geometry" />
        </mxCell>
        <mxCell id="16" edge="1" parent="1" source="8" target="10">
          <mxGeometry relative="1" as="geometry" />
        </mxCell>
      </root>
    </mxGraphModel>
  </diagram>
</mxfile>
